<svg width="177" height="82" viewBox="0 0 177 82" fill="none" xmlns="http://www.w3.org/2000/svg">
    <path d="M50.2 40.1L29.8 51.9L12.6 41.9L32.9 30.1L50.2 40.1Z" fill="#2A9EF4"/>
    <path d="M50.2 16.6L9.5 40.1V16.6L29.8 4.8L50.2 16.6Z" fill="#00509D"/>
    <path d="M74.4 48.1C62.3 48.1 56.2 41.7 56.2 29C56.2 22.2 57.7 17.2 60.8 14.1C63.9 11 68.4 9.5 74.4 9.5C80.4 9.5 84.9 11 88 14.1C91.1 17.2 92.6 22.1 92.6 29C92.5 41.7 86.5 48.1 74.4 48.1ZM74.4 41.4C77.9 41.4 80.5 40.4 82.1 38.4C83.7 36.4 84.6 33.2 84.6 29C84.6 24.3 83.8 21 82.1 19.1C80.5 17.2 77.9 16.2 74.4 16.2C70.9 16.2 68.3 17.2 66.7 19.1C65 21 64.2 24.3 64.2 29C64.2 33.2 65 36.3 66.7 38.4C68.3 40.4 70.9 41.4 74.4 41.4Z" fill="#00509D"/>
    <path d="M100.3 47.5V10.1H116C121.6 10.1 125.8 11.5 128.7 14.4C131.5 17.3 133 22.1 133 28.9C133 35.3 131.6 40 128.8 43C126 46 121.7 47.4 116.1 47.4H100.3V47.5ZM108.2 41.5H114.9C117.1 41.5 119 41.2 120.5 40.5C122 39.8 123.1 38.6 123.9 36.8C124.7 35 125 32.4 125 29.1C125 25.8 124.7 23.2 124 21.4C123.3 19.6 122.2 18.4 120.7 17.7C119.2 17 117.3 16.7 114.9 16.7H108.2V41.5Z" fill="#00509D"/>
    <path d="M140.7 47.5V10.1H167.5V16.2H148.5V25.8H165.3V31.8H148.5V41.4H167.5V47.4H140.7V47.5Z" fill="#00509D"/>
    <path d="M18.5 76.9V60.2H27C28.7 60.2 29.9 60.6 30.8 61.4C31.6 62.2 32 63.3 32 64.7C32 65.6 31.8 66.3 31.5 66.9C31.2 67.5 30.7 68 30.1 68.3C30.9 68.5 31.5 68.9 32 69.5C32.5 70.1 32.7 70.9 32.7 72C32.7 73.6 32.2 74.8 31.3 75.6C30.4 76.4 29.1 76.8 27.4 76.8H18.5V76.9ZM22 67.1H26.3C27.1 67.1 27.8 66.9 28.1 66.5C28.4 66.1 28.6 65.6 28.6 64.9C28.6 64.2 28.4 63.6 28 63.2C27.7 63 27 62.8 26 62.8H22V67.1ZM22 74.3H26.4C27.3 74.3 27.9 74.1 28.3 73.8C28.7 73.4 28.9 72.8 28.9 71.9C28.9 71.2 28.7 70.6 28.3 70.2C27.9 69.8 27.2 69.7 26.1 69.7H22V74.3Z" fill="#2A9EF4"/>
    <path d="M45.5 76.9L51.9 60.2H55.7L62.1 76.9H58.5L56.9 72.9H50.7L49.1 76.9H45.5ZM51.3 70.2H56.4L53.8 63.5L51.3 70.2Z" fill="#2A9EF4"/>
    <path d="M80.5 77.2C79.4 77.2 78.4 77.1 77.5 77C76.6 76.8 75.8 76.6 75.1 76.3V73.2C75.9 73.5 76.7 73.8 77.6 74C78.5 74.2 79.3 74.3 80.2 74.3C81.4 74.3 82.3 74.2 82.9 74C83.5 73.8 83.8 73.3 83.8 72.5C83.8 72 83.7 71.6 83.4 71.3C83.1 71 82.7 70.7 82.1 70.5C81.5 70.3 80.7 70 79.6 69.7C77.9 69.2 76.6 68.6 75.9 67.9C75.2 67.2 74.8 66.2 74.8 64.9C74.8 63.4 75.4 62.2 76.5 61.3C77.6 60.5 79.3 60.1 81.4 60.1C82.4 60.1 83.3 60.2 84.2 60.3C85.1 60.4 85.8 60.6 86.3 60.8V63.9C84.9 63.4 83.4 63.1 81.9 63.1C80.8 63.1 80 63.2 79.3 63.5C78.7 63.7 78.4 64.2 78.4 65C78.4 65.4 78.5 65.8 78.7 66C78.9 66.3 79.3 66.5 79.9 66.7C80.4 66.9 81.2 67.1 82.2 67.4C83.6 67.8 84.6 68.2 85.4 68.7C86.1 69.2 86.7 69.8 86.9 70.4C87.2 71 87.3 71.8 87.3 72.6C87.3 74.1 86.7 75.2 85.6 76.1C84.5 76.7 82.8 77.2 80.5 77.2Z" fill="#2A9EF4"/>
    <path d="M101.7 76.9V60.2H105.2V76.9H101.7Z" fill="#2A9EF4"/>
    <path d="M128.3 77.2C125.5 77.2 123.3 76.4 121.9 74.9C120.4 73.4 119.7 71.3 119.7 68.7C119.7 65.9 120.4 63.8 121.9 62.2C123.3 60.7 125.5 59.9 128.4 59.9C129.4 59.9 130.3 60 131.1 60.1C131.9 60.2 132.7 60.5 133.4 60.7V63.8C131.9 63.2 130.4 62.9 128.7 62.9C126.8 62.9 125.4 63.4 124.6 64.3C123.8 65.3 123.4 66.7 123.4 68.7C123.4 72.4 125.2 74.2 128.8 74.2C129.6 74.2 130.4 74.1 131.2 74C132 73.9 132.8 73.6 133.5 73.3V76.4C132.8 76.6 132 76.8 131.2 76.9C130.2 77.1 129.3 77.2 128.3 77.2Z" fill="#2A9EF4"/>
    <path d="M152.8 77.2C151.7 77.2 150.7 77.1 149.8 77C148.9 76.8 148.1 76.6 147.4 76.3V73.2C148.2 73.5 149 73.8 149.9 74C150.8 74.2 151.6 74.3 152.5 74.3C153.7 74.3 154.6 74.2 155.2 74C155.8 73.8 156.1 73.3 156.1 72.5C156.1 72 156 71.6 155.7 71.3C155.4 71 155 70.7 154.4 70.5C153.8 70.3 153 70 151.9 69.7C150.2 69.2 148.9 68.6 148.2 67.9C147.5 67.2 147.1 66.2 147.1 64.9C147.1 63.4 147.7 62.2 148.8 61.3C149.9 60.5 151.6 60.1 153.7 60.1C154.7 60.1 155.6 60.2 156.5 60.3C157.4 60.4 158.1 60.6 158.6 60.8V63.9C157.2 63.4 155.7 63.1 154.2 63.1C153.1 63.1 152.3 63.2 151.6 63.5C151 63.7 150.7 64.2 150.7 65C150.7 65.4 150.8 65.8 151 66C151.2 66.3 151.6 66.5 152.2 66.7C152.7 66.9 153.5 67.1 154.5 67.4C155.9 67.8 156.9 68.2 157.7 68.7C158.4 69.2 159 69.8 159.2 70.4C159.5 71 159.6 71.8 159.6 72.6C159.6 74.1 159 75.2 157.9 76.1C156.8 76.7 155.1 77.2 152.8 77.2Z" fill="#2A9EF4"/>
    </svg>
